/* XPM */
static char * eject_xpm[] = {
"16 12 8 1",
" 	c None",
".	c #C0CCC8",
"+	c #282028",
"@	c #889498",
"#	c #909CA0",
"$	c #A0A4A8",
"%	c #E8FCF8",
"&	c #484850",
"................",
"........+.......",
".......+@+......",
"......+@#$+.....",
".....+@###$+....",
"....+@#####$+...",
"...%%%%%%%%%%%..",
"................",
"...&&&&&&&&&&&..",
"...&$#######$%..",
"...%%%%%%%%%%%..",
"................"};
