/* XPM */
static char *magick[] = {
/* columns rows colors chars-per-pixel */
"16 12 256 2",
"   c Gray0",
".  c #000018",
"X  c #000020",
"o  c #000040",
"O  c #00c400",
"+  c #00d400",
"@  c #080810",
"#  c #080c10",
"$  c #081018",
"%  c #081030",
"&  c #083800",
"*  c #086898",
"=  c #08fc00",
"-  c #101010",
";  c #106000",
":  c #181018",
">  c #182030",
",  c #185808",
"<  c #188408",
"1  c #202020",
"2  c #209c08",
"3  c #282018",
"4  c #282028",
"5  c #282428",
"6  c #282828",
"7  c #283030",
"8  c #382818",
"9  c #382c18",
"0  c #383028",
"q  c #383038",
"w  c Gray22",
"e  c #383840",
"r  c #383848",
"t  c #403840",
"y  c #403c38",
"u  c #403c40",
"i  c #404458",
"p  c #404848",
"a  c #483010",
"s  c #483c28",
"d  c #484850",
"f  c #500800",
"g  c #501000",
"h  c #504818",
"j  c #504828",
"k  c #504850",
"l  c #505028",
"z  c #505058",
"x  c #580800",
"c  c #582008",
"v  c #585010",
"b  c #585828",
"n  c #585858",
"m  c #585860",
"M  c #585c58",
"N  c #605870",
"B  c #606068",
"V  c #681000",
"C  c #686030",
"Z  c #686038",
"A  c #686468",
"S  c #686850",
"D  c #686870",
"F  c #687070",
"G  c #6894d8",
"H  c #700808",
"J  c #702008",
"K  c #704808",
"L  c #706008",
"P  c #706838",
"I  c Gray44",
"U  c #707078",
"Y  c Gray47",
"T  c #787880",
"R  c #788488",
"E  c #800808",
"W  c #804808",
"Q  c #805800",
"!  c #807058",
"~  c #807c38",
"^  c #807c80",
"/  c #808488",
"(  c #808c90",
")  c #809458",
"_  c #887c38",
"`  c #888460",
"'  c #888c98",
"]  c #889098",
"[  c #889498",
"{  c #889c60",
"}  c #908890",
"|  c #909ca0",
" . c #981008",
".. c #988438",
"X. c #989038",
"o. c #989050",
"O. c #989060",
"+. c #989898",
"@. c #989ca0",
"#. c #a01008",
"$. c #a06000",
"%. c #a09038",
"&. c #a09050",
"*. c #a09868",
"=. c #a0a4a8",
"-. c #a8a4a8",
";. c #a8b4b0",
":. c #b06800",
">. c #b09858",
",. c #b0a058",
"<. c Gray69",
"1. c #b0b410",
"2. c #b0b458",
"3. c #b0b470",
"4. c #b0b4a8",
"5. c #b0b4b8",
"6. c #b0bcb8",
"7. c Gray72",
"8. c #b8bcb8",
"9. c #c07808",
"0. c #c09c30",
"q. c #c0bcc0",
"w. c #c0c8b8",
"e. c #c0c8c8",
"r. c #c0ccc8",
"t. c #c81010",
"y. c #c8c4c8",
"u. c #c8c8c8",
"i. c #c8d4b8",
"p. c #c8d4d8",
"a. c #d08400",
"s. c #d0d4d8",
"d. c #d0dcc8",
"f. c #d8d8d8",
"g. c #d8e4e0",
"h. c #d8ece8",
"j. c #e09400",
"k. c #e0cc00",
"l. c #e0dc60",
"z. c #e0dc68",
"x. c #e0e4e0",
"c. c #e0f4f0",
"v. c #e81010",
"b. c #e8a400",
"n. c #e8fcf8",
"m. c Gray94",
"M. c #f8b400",
"N. c #f8b418",
"B. c #f8b438",
"V. c #f8cc18",
"C. c #f8cc30",
"Z. c #f8d400",
"A. c #f8f400",
"S. c #f8f450",
"D. c #f8fc18",
"F. c #f8fc28",
"G. c #f8fc38",
"H. c #f8fc88",
"J. c #f8fcf8",
"K. c #000008",
"L. c #68e464",
"P. c #f049ee",
"I. c #ff0aff",
"U. c #bf40bf",
"Y. c #92f891",
"T. c #dbcf68",
"R. c #031507",
"E. c #400808",
"W. c #00f8d0",
"Q. c #f1cffc",
"!. c #ff1514",
"~. c #bf0808",
"^. c #0434b0",
"/. c #f1def3",
"(. c #ff15ff",
"). c #bf08bf",
"_. c #980064",
"`. c #0500f1",
"'. c #1a00ff",
"]. c #0800bf",
"[. c #00f8db",
"{. c #00cf7f",
"}. c #001505",
"|. c #000808",
" X c #6b200d",
".X c #85de00",
"XX c #071500",
"oX c #080800",
"OX c #989c00",
"+X c #05d800",
"@X c #1a1500",
"#X c #01e4b0",
"$X c #0049f3",
"%X c #000aff",
"&X c #0040bf",
"*X c #00bab0",
"=X c #0073f3",
"-X c #0002ff",
";X c #0052d4",
":X c #0101f0",
">X c Blue",
",X c #0000bf",
"<X c #002900",
"1X c #6e0100",
"2X c #002000",
"3X c #00d900",
"4X c #001500",
"5X c #000800",
"6X c #00de00",
"7X c #ff1500",
"8X c #bf0800",
"9X c #23c0b0",
"0X c #01eff3",
"qX c Cyan",
"wX c #00bfbf",
"eX c #7c93ec",
"rX c #00b3e5",
"tX c #00031b",
"yX c #004040",
"uX c #001601",
"iX c #9c2864",
"pX c #ecf0d7",
"aX c #00ff15",
"sX c #00bf08",
"dX c #0b0820",
"fX c #0800de",
"gX c #000015",
"hX c #e42801",
"jX c #49f000",
"kX c Green",
"lX c #00bf00",
"zX c #00e803",
"xX c #003b00",
"cX c #001200",
"vX c #00cc04",
"bX c #00ef00",
"nX c #c117f8",
"mX c #6268cf",
"MX c #050215",
"NX c #404008",
"BX c Gray0",
"VX c Gray0",
"CX c Gray0",
"ZX c Gray0",
"AX c Gray0",
"SX c Gray0",
"DX c Gray0",
"FX c Gray0",
"GX c Gray0",
"HX c Gray0",
"JX c Gray0",
"KX c Gray0",
"LX c Gray0",
"PX c Gray0",
"IX c Gray0",
"UX c Gray0",
/* pixels */
"r.r.r.r.r.r.r.r.r.r.r.r.r.r.r.r.",
"r.r.r.: : : : : : : : : 4 r.r.r.",
"r.r.r.: @.@.@.@.@.@.@.@.c.r.r.r.",
"r.r.r.: @.@.@.@.@.@.@.=.n.r.r.r.",
"r.r.r.: @.@.@.@.@.@.@.=.n.r.r.r.",
"r.r.r.: @.@.@.@.@.@.@.=.n.r.r.r.",
"r.r.r.: @.@.@.@.@.@.@.=.n.r.r.r.",
"r.r.r.: @.@.@.@.@.@.@.=.n.r.r.r.",
"r.r.r.: @.@.@.@.@.@.@.=.n.r.r.r.",
"r.r.r.4 =.=.=.=.=.=.=.=.n.r.r.r.",
"r.r.r.c.n.n.n.n.n.n.n.n.n.r.r.r.",
"r.r.r.r.r.r.r.r.r.r.r.r.r.r.r.r."
};
