/* XPM */
static char *scrolledwindow_xpm[] = {
/* columns rows colors chars-per-pixel */
"21 21 3 1",
"  c Gray0",
". c #d6d6d6",
"X c Gray100",
/* pixels */
"XXXXXXXXXXXXXXXXXXXXX",
"X.............X..... ",
"X.............X.. .. ",
"X.............X.   . ",
"X.............X..... ",
"X.............X      ",
"X.............XXXXXX ",
"X.............XX.... ",
"X.............XX.... ",
"X.............XXXXXX ",
"X.............X..... ",
"X.............X.   . ",
"X.............X.. .. ",
"X.............X..... ",
"XXXXXXXXXXXXXXX      ",
"X.... XXX .... ......",
"X.. . X.. . .. ......",
"X.  . X.. .  . ......",
"X.. . X.. . .. ......",
"X.... X.. .... ......",
"X              ......"
};
